<svg id="Laag_1" data-name="Laag 1" xmlns="http://www.w3.org/2000/svg" viewBox="0 0 192.02 158.21"><title>camera</title><path d="M78.77,93.35c0-3,0-5.58,0-8.16,0-3.36,1-4.38,4.3-4.4q11.51,0,23,0c3.35,0,4.34,1,4.39,4.3,0,2.65,0,5.29,0,8.08a24.32,24.32,0,0,1,2.44.19c2,.37,2.71-.7,3.13-2.48,1.27-5.43,2.54-10.86,4-16.23,2.6-9.27,10.08-14.87,19.74-14.92q11.74-.06,23.5,0c9.79.05,17.18,5.65,19.82,15.13,1.43,5.13,2.76,10.29,3.86,15.5.51,2.44,1.57,3.07,4,3,13.16-.13,26.33-.09,39.49,0,6.87,0,12.38,2.67,15.43,9.06a16.77,16.77,0,0,1,1.61,7q.16,46.25,0,92.48c0,9-6.55,15.61-15.5,16-.66,0-1.33,0-2,0q-78.48,0-157,0c-5.67,0-10.48-1.54-14.09-6.09a15,15,0,0,1-3.39-9.46c0-31.08-.07-62.16,0-93.24,0-9,7-15.52,16.59-15.75C74.29,93.31,76.35,93.35,78.77,93.35ZM62.09,192.78c0,3.67-.4,7.06.14,10.29a13.57,13.57,0,0,0,3.24,6.19c2,2.28,5,2.33,7.89,2.33q78.24,0,156.48,0a25.43,25.43,0,0,0,3.49-.19c3.67-.54,7.12-3.44,7.51-7.06s.09-7.59.09-11.67h-2.76c-6.08,0-12.16,0-18.24,0-2.61,0-3.92-1.23-3.89-3.25s1.38-3.11,4-3.12c5.91,0,11.83,0,17.74,0H241V125.39H191.12c13.52,20.35,13.44,40.47-.15,60.84h3.12c4,0,8,0,12,0,2,0,3.39,1,3.43,3.16s-1.32,2.93-3.18,3.16a16.87,16.87,0,0,1-2.25.07c-5.66,0-11.33-.1-17,.07a7.5,7.5,0,0,0-4.24,1.46,49.61,49.61,0,0,1-62.59-.06,6.92,6.92,0,0,0-4-1.41c-17.16-.09-34.33-.06-51.49-.06C64,192.65,63.14,192.73,62.09,192.78ZM241.18,118.6c0-2.87,0-5.45,0-8,0-7.15-3.66-10.78-10.77-10.79q-21.61,0-43.24,0c-3.81,0-4.35-.4-5.32-4.16-1.6-6.29-3.12-12.6-4.75-18.88A13.71,13.71,0,0,0,163.48,66q-11.86-.12-23.74,0A13.7,13.7,0,0,0,126.1,76.72c-1.58,6.12-3,12.27-4.6,18.41-1.09,4.33-1.53,4.66-6,4.66q-21.73,0-43.49,0c-4.92,0-9.05,2.72-9.63,7-.52,3.8-.11,7.73-.11,11.75.6,0,1.16.13,1.73.13,17.58,0,35.16,0,52.74-.06a6.15,6.15,0,0,0,3.51-1.44,49.74,49.74,0,0,1,62.58,0,6.88,6.88,0,0,0,4,1.47c17.17.1,34.33.07,51.5.06C239.18,118.72,240,118.65,241.18,118.6Zm-132.76,37a43.18,43.18,0,0,0,86.35.24c.24-23.7-19.16-43.26-43.06-43.41A43.26,43.26,0,0,0,108.42,155.62ZM62.18,125.31v60.76h50c-.39-.74-.65-1.22-.91-1.7-2-3.65-4.65-7.11-5.73-11-1.36-4.9-3.53-6.55-8.67-6.28-5.62.3-10.21-4.53-10.77-9.87-.62-6.07,2.71-11.26,8.48-12.69a25.81,25.81,0,0,1,6.7-.44c1.62,0,2.25-.6,2.82-2.05,1.56-4,3.27-8,5.09-11.89a41.52,41.52,0,0,1,3.13-4.84Zm23.1-32.16h18.65V87.3H85.28ZM102,150.44c-3.49,0-6.9-.83-9,2.62a4.79,4.79,0,0,0,.24,5.63c2.3,3.13,5.6,2,8.77,2.1Z" transform="translate(-55.59 -59.7)"/><path d="M151.61,99.79c-6.5,0-13,0-19.49,0-3.61,0-4.84-1.52-4-5,1.54-6.47,3.2-12.91,4.79-19.37a3.66,3.66,0,0,1,3.94-3.08q14.73,0,29.48,0a3.64,3.64,0,0,1,3.94,3.06c1.6,6.46,3.26,12.9,4.8,19.37.85,3.54-.38,5.06-4,5.07C164.6,99.81,158.1,99.79,151.61,99.79Zm16.57-6.45C167,88.7,166,84.34,164.81,80a2.27,2.27,0,0,0-1.73-1.24q-11.49-.12-23,0A2.27,2.27,0,0,0,138.38,80c-1.19,4.32-2.22,8.67-3.32,13.11a11.13,11.13,0,0,0,1.43.19Z" transform="translate(-55.59 -59.7)"/><path d="M184.24,155.75A32.65,32.65,0,1,1,151.61,123,32.58,32.58,0,0,1,184.24,155.75ZM151.58,182a26.33,26.33,0,1,0-26.33-26.38A26.32,26.32,0,0,0,151.58,182Z" transform="translate(-55.59 -59.7)"/><path d="M151.56,175.71a19.82,19.82,0,0,1-13.23-5c-1.93-1.68-2.3-3.48-1.12-5s3.08-1.57,5.25.1c8.54,6.58,19.61,3.36,22.22-6.67.62-2.36,0-5.05-.1-7.59-.05-1.22-.63-2.62-.19-3.6s2-2,2.79-1.86a4.71,4.71,0,0,1,3,2.41c3.63,8.59.21,18.92-7.79,24A19.58,19.58,0,0,1,151.56,175.71Z" transform="translate(-55.59 -59.7)"/><path d="M151.64,135.37c2.41.55,4.85,1,7.22,1.69,1.91.58,2.93,2.05,2.23,4.06s-2.25,2.56-4.23,1.88c-5.49-1.89-10.44-1-14.84,2.85-1.51,1.34-3.15,1.5-4.64,0-1.33-1.35-1.09-3.23.61-4.8A21.27,21.27,0,0,1,151.64,135.37Z" transform="translate(-55.59 -59.7)"/></svg>