<svg id="Laag_1" data-name="Laag 1" xmlns="http://www.w3.org/2000/svg" viewBox="0 0 149.75 149.39"><title>Naamloos-2</title><path d="M27.28,149.65H137.6c1.58,9.22-.09,16.2-8.43,18.75a20.29,20.29,0,0,1-5.69.48c-4.75.07-9.5.12-14.25,0-2.14-.06-2.79.71-2.62,2.73a33.38,33.38,0,0,1,0,5c-.08,1.5.44,2.1,2,2,2.48-.1,5,0,7.62,0v4.61H48.77V178.6c2.47,0,4.94-.09,7.39,0,1.79.09,2.24-.6,2.26-2.3.08-7.44.13-7.42-7.38-7.44-4.25,0-8.51.08-12.74-.13-5.57-.27-10-3.82-10.92-9.25C26.83,156.34,27.28,153,27.28,149.65Zm55.23,4.81h-48c-2.78,0-3,.26-2.63,3,.55,4.31,3.48,6.61,8.5,6.61h84.24a14.8,14.8,0,0,0,2-.07,7.19,7.19,0,0,0,6.46-6.28c.42-3.07.23-3.3-2.83-3.3Zm19.36,24c0-2.94.08-5.59-.07-8.23,0-.48-1-1.26-1.56-1.3-2.24-.15-4.49-.06-6.74-.07-9.32,0-18.64,0-28,0-.78,0-2.2.67-2.23,1.1-.21,2.78-.11,5.58-.11,8.45Z" transform="translate(-27.02 -33.82)"/><path d="M171.87,62.88a12.26,12.26,0,0,1,1.25-.22c3.61-.17,3.61-.17,3.61,3.34q0,33.12.05,66.25c0,2.22-.5,3-2.88,3q-50.25-.12-100.5,0c-2.44,0-3-.7-3-3.08.09-21.83,0-43.66,0-65.5,0-4.43,0-4.43,4.83-3.71v67.14h96.62Z" transform="translate(-27.02 -33.82)"/><path d="M176.56,33.82V57.64c-1,0-1.77.13-2.58.13q-50.35,0-100.69.06c-2.27,0-3-.58-2.92-2.91.15-7,0-14,0-21.1Zm-101.24,19h96.62V41.92c0-3.43,0-3.43-3.34-3.43h-90a4.32,4.32,0,0,0-1.73.06c-.61.29-1.5.89-1.51,1.39C75.27,44.16,75.32,48.4,75.32,52.77Z" transform="translate(-27.02 -33.82)"/><path d="M27.07,144.59c0-16.71-.16-33.27.1-49.83.08-5.05,4.7-9.85,9.62-10,9.47-.37,19-.11,28.6-.11V89.2H55.67c-5.08,0-10.16,0-15.25,0-5.8,0-8.62,2.74-8.64,8.55,0,14.58,0,29.16,0,43.74v3.1Z" transform="translate(-27.02 -33.82)"/><path d="M110.81,111.26l-3.09,3.6Q95.86,103,84.64,91.76l23.14-23.09,3,2.81L90.56,91.28Z" transform="translate(-27.02 -33.82)"/><path d="M156.83,91.81l-20.39-20.1,3.2-3.11,22.85,22.93-23.26,23.14-2.62-2.9Z" transform="translate(-27.02 -33.82)"/><path d="M133.06,68.48c-3.9,13-7.76,25.9-11.62,38.79a64.12,64.12,0,0,0-1.88,6.45c-.48,2.51-1.72,2.9-3.81,1.92-.51-.24-1-.46-1.67-.75,2.86-9.57,5.68-19,8.52-28.49,1.6-5.34,3.23-10.66,4.82-16C128.63,66.36,128.8,66.29,133.06,68.48Z" transform="translate(-27.02 -33.82)"/><path d="M133.42,140.1h4.44v4.47h-4.44Z" transform="translate(-27.02 -33.82)"/><path d="M84.75,48H80.43c-1-4.71-.37-5.39,4.32-4.47Z" transform="translate(-27.02 -33.82)"/><path d="M94.78,48.08H89.64c.18-1.62-.07-3.38.66-4.48.42-.63,3.16-.69,3.61-.09C94.69,44.57,94.51,46.34,94.78,48.08Z" transform="translate(-27.02 -33.82)"/><path d="M99.59,48v-4.4c4.6-1,5.07-.48,4.38,4.4Z" transform="translate(-27.02 -33.82)"/></svg>